# xmcd CD database file
#
# Track frame offsets:
#	150
#	13464
#	29307
#	43434
#	56020
#	69293
#	82821
#	96025
#	110204
#	122518
#	140119
#	151394
#	163814
#	173515
#	186841
#	199713
#	210953
#	222593
#
# Disc length: 3112 seconds
#
# Revision: 3
# Processed by: cddbd v1.5.2PL0 Copyright (c) Steve Scherf et al.
# Submitted via: CDex 1.70beta2
#
DISCID=050c2612
DTITLE=Nat King Cole - The One and Only
DYEAR=1900
DGENRE=Jazz
TTITLE0=You  Made Me Love You
TTITLE1=Unforgettable
TTITLE2=It's All in The Game
TTITLE3=Pretend
TTITLE4=The Girl From Ipanema
TTITLE5=Stay As Sweet As You Are
TTITLE6=Nature Boy
TTITLE7=Impossible
TTITLE8=A Blossom Fell
TTITLE9=Magnificent Obsession
TTITLE10=I Could Have Danced All Night
TTITLE11=The Party's Over
TTITLE12=More
TTITLE13=Answer Me, My Love
TTITLE14=You're My Everything
TTITLE15=Adeste Fideles
TTITLE16=L-O-V-E
TTITLE17=He'll Have To Go
EXTD=
EXTT0=
EXTT1=
EXTT2=
EXTT3=
EXTT4=
EXTT5=
EXTT6=
EXTT7=
EXTT8=
EXTT9=
EXTT10=
EXTT11=
EXTT12=
EXTT13=
EXTT14=
EXTT15=
EXTT16=
EXTT17=
PLAYORDER=
